<svg id="Layer_1" data-name="Layer 1" xmlns="http://www.w3.org/2000/svg" viewBox="0 0 16 16" width="64" height="64"><title>20_MView</title><path d="M16,16H0V0H16Z" fill="#f5f5f5" opacity="0" /><path d="M15,12H11v2H1V6H3V1H15ZM2,0V5H0V15H12V13h4V0Z" fill="#f6f6f6" /><path d="M14,11H11V6H4V3H14Zm-4-1H8V8h2Zm0,3H8V11h2ZM7,10H5V8H7Zm0,3H5V11H7ZM4,10H2V8H4Zm0,3H2V11H4ZM3,1V6H1v8H11V12h4V1Z" fill="#424242" /><path d="M14,11H11V6H4V3H14Z" fill="#f0eff1" /><path d="M10,11H8v2h2ZM7,11H5v2H7ZM4,11H2v2H4Zm6-3H8v2h2ZM7,8H5v2H7ZM4,10H2V8H4Z" fill="#f0eff1" /></svg>