<svg id="Layer_1" data-name="Layer 1" xmlns="http://www.w3.org/2000/svg" viewBox="0 0 16 16" width="24" height="24"><title>21_MViewLog</title><path d="M16,16H0V0H16Z" fill="#f5f5f5" opacity="0" /><path d="M15,15H8V14H9V13H8V12H9V11H8V10H9V9H8V8h7ZM7,12H1V4H3V1H13V7H7Zm7-5V0H2V3H0V13H7v3h9V7Z" fill="#f6f6f6" /><path d="M13,10H11v1h2Z" fill="#424242" /><path d="M14,14H10V9h4ZM8,8V9H9v1H8v1H9v1H8v1H9v1H8v1h6.999L15,8Z" fill="#424242" /><path d="M4,8H2V6H4Zm0,3H2V9H4ZM3,1V4H1v8H7V11H5V9H7V8H5V6H7V7H8V6h2V7h1V4H4V3h8V7h1V1Z" fill="#424242" /><path d="M13,11H11V10h2ZM10,9v5h4V9Z" fill="#f0eff1" /><path d="M12,7H11V4H4V3h8Z" fill="#f0eff1" /><path d="M2,11H4V9H2ZM2,8H4V6H2ZM5,8H7V6H5Zm0,3H7V9H5Zm5-5V7H8V6Z" fill="#f0eff1" /></svg>