<svg id="Layer_1" data-name="Layer 1" xmlns="http://www.w3.org/2000/svg" viewBox="0 0 16 16" width="24" height="24"><title>14_PrimaryKey</title><path d="M16,16H0V0H16Z" fill="#fff" opacity="0" /><path d="M11,4A3.9829,3.9829,0,0,0,7.557,6H1v4H2v2H7V10h.557A3.9923,3.9923,0,1,0,11,4" fill="#f6f6f6" /><path d="M11,9a1,1,0,1,1,1-1,1.0016,1.0016,0,0,1-1,1m0-4A2.9956,2.9956,0,0,0,8.185,7H2V9H3v2H4V9H5v2H6V9H8.185A2.9944,2.9944,0,1,0,11,5" fill="#424242" /><path d="M12,8a1,1,0,1,0-1,1,1,1,0,0,0,1-1" fill="#f0eff1" /></svg>