<svg id="Layer_1" data-name="Layer 1" xmlns="http://www.w3.org/2000/svg" viewBox="0 0 16 16" width="64" height="64"><title>8_Profile</title><path d="M16,16H0V0H16Z" fill="#fff" opacity="0" /><path d="M13.01,3V2h-1A3.2209,3.2209,0,0,0,9.02,0,3.2538,3.2538,0,0,0,6.01,2H5.0008V3H3.01s-.007,4.336-.009,8H0v3H1v2H15V3Z" fill="#f6f6f6" /><path d="M9.5,9a3.5668,3.5668,0,0,0-3.211,2H0v3H1v2H6V14h.289A3.5668,3.5668,0,0,0,9.5,16a3.5,3.5,0,0,0,0-7" fill="#f6f6f6" /><path d="M9.5,14A1.5,1.5,0,1,1,11,12.5,1.5005,1.5005,0,0,1,9.5,14m0-4A2.5562,2.5562,0,0,0,7,12H1v1H2v2H3V13H4v2H5V13H7a2.5562,2.5562,0,0,0,2.5,2,2.5,2.5,0,0,0,0-5" fill="#424242" /><path d="M9.01,4A1,1,0,1,1,10,3a.9906.9906,0,0,1-.99,1M12,4V3H11A2,2,0,1,0,7,3H6V4H4v7H5V5h8v9h-.351a3.5154,3.5154,0,0,1-.707,1H14V4Z" fill="#424242" /><path d="M11,12.5A1.5,1.5,0,1,1,9.5,11,1.5005,1.5005,0,0,1,11,12.5" fill="#f0eff1" /><path d="M9.01,4a1,1,0,1,0-1-1,.9991.9991,0,0,0,1,1" fill="#f0eff1" /><path d="M13,14V12.5a3.4511,3.4511,0,0,1-.352,1.5Z" fill="#f0eff1" /><path d="M5,5v6H6.289A3.5668,3.5668,0,0,1,9.5,9,3.5038,3.5038,0,0,1,13,12.5V5Z" fill="#f0eff1" /></svg>