<svg id="Layer_1" data-name="Layer 1" xmlns="http://www.w3.org/2000/svg" viewBox="0 0 16 16" width="24" height="24"><title>23_UserTableType</title><path d="M16,16H0V0H16Z" fill="#efeef0" opacity="0" /><path d="M15,1H5V4C2.149,4,0,5.29,0,7v6c0,1.711,2.149,3,5,3s5-1.289,5-3V11h5Z" fill="#f6f6f6" /><path d="M6,2V4.049a8.5688,8.5688,0,0,1,1,.147V4h6V9H10v1h4V2Z" fill="#424242" /><path d="M5,8.326C3.001,8.326,1.675,7.528,1.675,7S3.001,5.675,5,5.675,8.325,6.473,8.325,7,6.999,8.326,5,8.326ZM5,5C2.791,5,1,5.896,1,7v6c0,1.105,1.791,2,4,2s4-.895,4-2V7C9,5.896,7.209,5,5,5Z" fill="#424242" /><path d="M5,5.675c-1.999,0-3.325.798-3.325,1.325S3.001,8.326,5,8.326,8.325,7.528,8.325,7,6.999,5.675,5,5.675Z" fill="#f0eff1" /><path d="M7,4v.234C8.798,4.679,10,5.722,10,7V9h3V4Z" fill="#f0eff1" /></svg>